<svg width="4" height="15" viewBox="0 0 4 15" fill="none" xmlns="http://www.w3.org/2000/svg">
<path d="M1.6601 11.5732C0.824088 11.5732 0.146368 12.2448 0.146367 13.0732C0.146367 13.9017 0.824087 14.5732 1.6601 14.5732C2.49611 14.5732 3.17383 13.9017 3.17383 13.0732C3.17383 12.2448 2.49611 11.5732 1.6601 11.5732Z" fill="white"/>
<path d="M1.6601 6.12891C0.824088 6.12891 0.146368 6.80048 0.146367 7.62891C0.146367 8.45733 0.824087 9.12891 1.6601 9.12891C2.49611 9.12891 3.17383 8.45733 3.17383 7.62891C3.17383 6.80048 2.49611 6.12891 1.6601 6.12891Z" fill="white"/>
<path d="M1.6601 0.68457C0.824088 0.68457 0.146368 1.35614 0.146367 2.18457C0.146367 3.013 0.824087 3.68457 1.6601 3.68457C2.49611 3.68457 3.17383 3.013 3.17383 2.18457C3.17383 1.35614 2.49611 0.68457 1.6601 0.68457Z" fill="white"/>
</svg>
